<svg xmlns="http://www.w3.org/2000/svg" version="1.1" xmlns:xlink="http://www.w3.org/1999/xlink" xmlns:svgjs="http://svgjs.dev/svgjs" width="1000" height="626" viewBox="0 0 1000 626"><g transform="matrix(1,0,0,1,-0.23452961858203025,0.2539093052604926)"><svg viewBox="0 0 394 247" data-background-color="#ffffff" preserveAspectRatio="xMidYMid meet" height="626" width="1000" xmlns="http://www.w3.org/2000/svg" xmlns:xlink="http://www.w3.org/1999/xlink"><g id="tight-bounds" transform="matrix(1,0,0,1,0.09258954704972666,-0.09997365579206985)"><svg viewBox="0 0 393.8150057832289 247.2" height="247.2" width="393.8150057832289"><g><svg viewBox="0 0 393.8150057832289 247.2" height="247.2" width="393.8150057832289"><g><svg viewBox="0 0 393.8150057832289 247.2" height="247.2" width="393.8150057832289"><g id="textblocktransform"><svg viewBox="0 0 393.8150057832289 247.2" height="247.2" width="393.8150057832289" id="textblock"><g><svg viewBox="0 0 393.8150057832289 247.2" height="247.2" width="393.8150057832289"><path d="M392.893 53.02C391.042 27.36 385.765 20.227 385.765 20.227 369.565-6.202 349.348-0.506 331.186 3.292 299.119 3.446 267.182 9.091 235.19 12.119 168.039 12.581 100.315 4.986 33.498 23.717 27.221 29.464-6.511 24.846 1.116 56.304 3.116 69.39 10.41 83.913 10.188 95.922 11.188 98.026 12.577 93.202 13.169 96.23 15.243 104.39 18.631 100.541 21.408 105.365 17.538 118.246 20.315 128.971 22.963 140.21 18.297 143.135 12.317 141.749 9.633 151.449 9.355 158.479 7.856 157.145 6.208 156.837 5.004 156.632 2.579 157.402 2.986 159.608 4.375 167.152-1.587 171.514 2.153 178.904-0.42 186.91 3.931 193.838 3.338 202.511 3.264 204.255 3.671 205.744 4.319 206.154 7.189 208.361 3.005 212.672 3.449 217.342 32.887 249.262 64.823 227.195 94.983 241.872 102.814 231.608 96.927 245.516 100.056 243.36 102.5 240.846 104.277 251.263 107.035 245.362 107.461 243.668 106.813 239.665 108.331 240.435 109.128 240.846 109.831 240.743 109.942 238.382 110.109 234.841 108.646 237.048 108.257 235.201 112.46 225.861 111.423 248.081 115.367 247.158 115.182 244.438 114.034 240.538 116.385 241.051 118.718 237.151 118.792 233.918 120.866 242.693 120.94 244.592 121.31 245.926 121.902 246.85 128.382 237.305 134.825 250.237 141.62 245.926 145.785 241.205 149.785 248.492 154.006 246.696 155.487 245.259 156.986 242.693 158.412 247.004 175.871 247.928 194.478 244.079 211.029 247.158 255.259 241.41 302.526 249.518 349.163 241.923 360.16 238.998 371.583 234.841 382.303 231.506 382.303 231.506 390.986 222.371 390.986 181.316S392.837 145.393 393.115 112.703C393.393 80.013 394.689 78.679 392.837 53.02Z" opacity="1" fill="#ff0033" data-fill-palette-color="tertiary"></path><g transform="matrix(1,0,0,1,55.768319999999974,26.230666666666668)"><svg width="282.27836578322894" viewBox="1.5 -35.2 52.81249999999999 36.416667666655" height="194.73866666666666" data-palette-color="#ffffff"><path d="M2.95-19.65Q2.1-20.7 1.8-21.88 1.5-23.05 1.5-24.55L1.5-24.55 1.5-25.55Q1.5-25.9 1.53-26.43 1.55-26.95 1.5-27.6L1.5-27.6Q4.35-27.7 5.68-26.65 7-25.6 7.55-23L7.55-23Q8.85-16.9 10.65-10.45L10.65-10.45Q11.1-8.9 11.8-7.73 12.5-6.55 13.75-5.7L13.75-5.7 14.4-6.55Q15.1-7.5 15.25-7.8L15.25-7.8Q16-9.25 17.25-12.25L17.25-12.25 20.15-18.5Q23.1-24.8 25.85-29.05L25.85-29.05Q27.95-32.8 31.2-34.05L31.2-34.05Q32.25-34.45 33.25-34.5L33.25-34.5Q34.35-34.55 35.4-34.05L35.4-34.05Q36.05-33.75 36.43-33.23 36.8-32.7 36.8-32.05L36.8-32.05Q36.8-31.2 36.1-30.5L36.1-30.5Q35.3-29.7 34.8-29.45L34.8-29.45Q33.45-28.8 32.52-27.78 31.6-26.75 30.9-25.7 30.2-24.65 29.95-24.3L29.95-24.3Q28-21.55 26.68-18.57 25.35-15.6 23.55-11L23.55-11 22.65-8.7Q21.75-6.4 20.9-4.7 20.05-3 18.95-1.45L18.95-1.45Q17.95-0.25 16.7-0.15L16.7-0.15Q16.15-0.1 15.4-0.4L15.4-0.4Q8.85-3 6.35-8.75L6.35-8.75Q5.5-10.7 4.85-13.03 4.2-15.35 4.05-15.8L4.05-15.8Q3.45-17.9 3.25-18.55L3.25-18.55Q3.2-18.75 3.15-19.13 3.1-19.5 2.95-19.65L2.95-19.65ZM40.05-22.45Q40.05-22.2 39.92-21.28 39.8-20.35 39.8-19.8L39.8-19.8Q39.8-19.4 39.9-19.3L39.9-19.3 41.35-20.7Q42.15-21.6 42.75-22.1L42.75-22.1Q44.05-23.3 45.4-23.3L45.4-23.3Q46.5-23.3 47.05-22.45L47.05-22.45Q47.35-21.95 47.35-21.3L47.35-21.3Q47.35-20.8 47.15-20.55L47.15-20.55Q46.4-19.4 44.45-17.1L44.45-17.1Q43.7-16.3 43.7-15.55L43.7-15.55Q43.7-14.85 44.4-14L44.4-14Q45-13.3 46.1-11.9L46.1-11.9Q48.25-9.15 49.92-7.48 51.6-5.8 53.8-4.7L53.8-4.7Q54.05-4.6 54.2-4.23 54.35-3.85 54.3-3.65L54.3-3.65Q54.25-3.4 53.9-3.15 53.55-2.9 53.3-2.95L53.3-2.95Q52.55-3.15 52.05-3.2L52.05-3.2Q49.45-3.7 48.35-4.45L48.35-4.45Q46.55-5.7 43.25-8.8L43.25-8.8Q41.25-10.65 41.2-10.7L41.2-10.7 40.3-11.55Q39.25-12.6 39.25-12.6L39.25-12.6Q39.15-12.35 39.15-11.85L39.15-11.85Q39.15-11.4 39.22-10.88 39.3-10.35 39.25-10.15L39.25-10.15Q38.95-4.55 38.85-1.95L38.85-1.95Q38.75-0.3 38.07 0.55 37.4 1.4 36.2 1.2L36.2 1.2Q35.8 1.15 35.32 0.8 34.85 0.45 34.75 0.1L34.75 0.1Q34.2-2.1 34.2-4.2L34.2-4.2Q34.2-10.25 34.35-16.25L34.35-16.25 34.85-32.55Q34.9-35.2 37.6-35.2L37.6-35.2Q39.45-35.2 40.3-34.5 41.15-33.8 41.05-32.3L41.05-32.3 40.55-27.2Q40.35-25.45 40.05-22.45L40.05-22.45Z" opacity="1" transform="matrix(1,0,0,1,0,0)" fill="#ffffff" class="undefined-text-0" data-fill-palette-color="quaternary" id="text-0"></path></svg></g></svg></g></svg></g></svg></g><g></g></svg></g><defs></defs></svg><rect width="393.8150057832289" height="247.2" fill="none" stroke="none" visibility="hidden"></rect></g></svg></g></svg>